<svg xmlns="http://www.w3.org/2000/svg" viewBox="0 0 120 124" width="120" height="124"><defs><clipPath id="bb"><path d="M60.0 7.0 A41 41 0 0 1 75.4 86.0 Q72.0 101.0 50 109 Q53.0 97.0 40.8 84.2 A41 41 0 0 1 60.0 7.0 Z"></path></clipPath></defs><path d="M60.0 7.0 A41 41 0 0 1 75.4 86.0 Q72.0 101.0 50 109 Q53.0 97.0 40.8 84.2 A41 41 0 0 1 60.0 7.0 Z" fill="#fff" stroke="#fff" stroke-width="14" stroke-linejoin="round" stroke-linecap="round"></path><g clip-path="url(#bb)"><g transform="rotate(16 60 48)"><rect x="-60" y="-40" width="240" height="64" fill="#B43E91"></rect><rect x="-60" y="24" width="240" height="18" fill="#3F9FDE"></rect><rect x="-60" y="42" width="240" height="16" fill="#9DC01E"></rect><rect x="-60" y="58" width="240" height="18" fill="#E20B37"></rect><rect x="-60" y="76" width="240" height="90" fill="#F4CE1E"></rect></g></g></svg>