<svg width="100" height="100" viewBox="0 0 100 100" fill="none" xmlns="http://www.w3.org/2000/svg">
<path d="M0 0H100V100H0V0Z" fill="#FBB900"/>
<path d="M7.14282 50C7.14282 26.3669 26.2786 7.23105 49.9118 7.23105C73.5449 7.23105 92.6807 26.3669 92.6807 50C92.6807 73.6332 73.5449 92.769 49.9118 92.769C26.3668 92.769 7.14282 73.6332 7.14282 50Z" fill="white"/>
<path d="M81.3052 78.5714C81.3052 78.5714 82.4516 83.7743 83.6861 88.1834C84.9207 92.5926 85.9789 95.7672 86.3316 96.2081C86.6844 96.649 88.6244 98.1482 89.5062 97.9718C90.4763 97.7954 90.2117 96.0318 90.0353 95.5027C89.9472 95.0618 89.2417 92.3281 88.6244 89.7707C88.0071 87.3016 87.3898 85.2734 87.3898 85.2734C87.3898 85.2734 88.2717 85.3616 88.3598 84.5679C88.448 84.0388 88.2717 83.9506 88.1835 83.3334C88.0953 82.6279 85.8025 72.7513 85.8025 72.7513L81.3052 78.5714Z" fill="white"/>
<path d="M67.1075 44.1799C67.1075 44.1799 66.7548 44.7972 66.843 45.4145C66.843 45.5908 66.3138 45.8554 66.3138 45.8554C66.3138 45.8554 66.6666 46.5608 66.6666 47.1781C66.6666 47.7954 66.1375 48.6772 65.6084 48.6772C65.432 48.6772 65.432 47.9718 65.432 47.9718C65.432 47.9718 64.9911 47.619 64.9911 47.0018C64.9911 46.3845 64.6384 46.2963 64.2856 46.2963C63.9329 46.2963 62.8747 46.3845 62.3456 46.3845C61.8165 46.3845 61.1992 45.7672 60.8465 45.8554C60.141 46.1199 60.141 47.0018 60.0528 47.0018C59.9646 47.0018 59.4355 46.5608 59.4355 45.8554C59.4355 45.1499 60.0528 44.0035 61.8165 44.0035C62.2574 44.0035 63.1392 44.1799 63.5802 44.0035C64.0211 43.8272 64.0211 43.6508 64.0211 43.298C63.9329 43.0335 63.8447 42.4162 63.9329 42.2399C64.0211 42.0635 64.1975 41.8871 64.1975 41.8871L67.1075 44.1799Z" fill="#1E398F"/>
<path d="M58.9065 46.3845C58.9065 46.3845 58.3774 46.5609 57.9365 46.4727C57.231 46.2963 56.9665 45.7672 56.3492 45.7672C55.8201 45.7672 55.4673 46.4727 55.291 46.4727C55.1146 46.4727 55.1146 45.5027 55.291 45.1499C55.5555 44.7972 55.9083 44.0035 57.5837 44.0917C59.2592 44.1799 59.2592 44.7972 59.2592 44.7972C59.2592 44.7972 58.9947 45.1499 58.9947 45.5908C58.9065 46.1199 58.9065 46.3845 58.9065 46.3845Z" fill="#1E398F"/>
<path d="M51.4991 39.0653C51.1464 39.2416 50.5291 38.9771 50.4409 39.418C50.2645 39.7707 50.2645 40.388 50.2645 40.388C50.2645 40.388 49.7354 40.388 49.5591 40.1235C49.3827 39.8589 49.1182 39.7707 49.1182 39.0653C49.1182 38.3598 49.5591 37.3898 51.0582 37.3898C51.6755 37.3898 51.7637 37.5661 51.6755 37.8307C51.5873 38.0071 51.4991 38.0071 51.4991 38.3598C51.5873 38.6243 51.6755 38.8889 51.4991 39.0653Z" fill="#1E398F"/>
<path d="M56.7902 37.8307C56.7902 37.8307 56.5256 38.2716 55.9965 38.1834C55.3792 38.0953 54.4974 37.2134 53.7037 37.3016C52.9101 37.3016 52.2928 37.3898 52.0282 38.5362C51.9401 38.9771 52.2046 39.2416 52.2928 39.2416C52.381 39.2416 52.4692 38.8007 52.9101 38.8889C53.351 38.9771 53.1746 39.5062 53.7919 39.8589C54.321 40.2117 54.5856 39.8589 55.291 40.4762C55.9965 41.0053 55.732 41.2699 55.9083 41.6226C56.0847 41.8871 55.8201 42.3281 55.8201 42.3281C55.8201 42.3281 56.3492 42.5044 56.702 42.3281C57.2311 42.1517 57.4074 41.8871 57.4956 41.5344C57.672 41.1817 57.7602 40.7408 58.2011 40.8289C58.642 40.9171 58.9947 41.0053 59.2593 40.8289C59.5238 40.6526 59.8766 39.9471 59.8766 39.9471L56.7902 37.8307Z" fill="#1E398F"/>
<path d="M73.5449 50.7937C73.1921 50.7055 72.5749 50.6173 71.9576 50.97C70.9876 51.4991 71.6048 52.7337 71.7812 53.0864C72.3985 54.8501 73.1921 56.7019 73.5449 57.5838V50.7937Z" fill="#E3000E"/>
<path d="M39.6826 25.8377C39.5063 25.8377 39.0654 26.1905 38.1835 26.1905C37.3017 26.1905 36.2435 25.8377 35.8026 25.5732C35.3617 25.3086 35.0971 25.485 35.0089 25.6614C34.9207 25.8377 35.538 26.455 35.8908 26.9841C36.3317 27.5132 36.6844 27.6014 36.6844 27.9541C36.6844 28.2187 35.8026 28.3069 34.3916 27.9541C32.9807 27.6014 29.8943 25.485 29.8943 21.9577C29.8943 18.4303 31.1289 17.2839 31.1289 17.2839L36.5962 21.6931L36.6844 22.3986C36.6844 22.3986 37.4781 23.0159 38.2717 23.7213C39.0654 24.4268 40.2117 25.7495 40.2117 25.7495C40.2117 25.7495 39.859 25.8377 39.6826 25.8377Z" fill="#1E398F"/>
<path d="M34.8324 23.9859C34.5679 24.2504 34.2151 24.6032 34.1269 25.2204C34.0388 25.8377 35.2733 27.1605 35.3615 27.2487C35.5379 27.425 35.7142 27.5132 34.7442 27.425C33.4215 27.2487 30.5996 24.9559 30.5996 21.8695C30.5996 18.7831 31.746 17.7249 31.746 17.7249L36.6843 21.6931L36.7724 22.3986C36.7724 22.3104 35.097 23.7213 34.8324 23.9859Z" fill="white"/>
<path d="M78.836 60.6702H74.6914L78.0424 70.8995C77.6015 69.5767 78.6597 72.9277 79.1888 73.9859C79.7179 75.0441 79.9824 75.3086 80.247 75.3968C80.4233 75.3968 80.4233 75.3086 80.4233 75.3086C80.4233 75.3086 80.7761 76.5432 81.5697 76.2787L81.7461 76.1905L86.1553 85.2734L87.1253 84.4797L78.836 60.6702Z" fill="#FBB900"/>
<path d="M78.836 60.6702H74.6914L78.0424 70.8995C77.6015 69.5767 78.6597 72.9277 79.1888 73.9859C79.7179 75.0441 79.9824 75.3086 80.247 75.3968C80.4233 75.3968 80.4233 75.3086 80.4233 75.3086C80.4233 75.3086 80.7761 76.5432 81.5697 76.2787L81.7461 76.1905L86.1553 85.2734L87.1253 84.4797L78.836 60.6702Z" stroke="#FBB900" stroke-width="0.25" stroke-miterlimit="3.8637"/>
<path d="M82.3632 60.7584C82.3632 60.7584 79.7177 60.7584 79.7177 57.1429V50.2646H78.8359V60.6702H78.4832C78.8359 61.552 86.8606 84.3034 86.8606 84.3034C86.8606 84.3034 87.0369 84.7443 87.3897 84.5679C87.7424 84.3915 87.566 83.9506 87.566 83.9506L82.3632 60.7584Z" fill="#E3000E"/>
<path d="M82.3632 60.7584C82.3632 60.7584 79.7177 60.7584 79.7177 57.1429V50.2646H78.8359V60.6702H78.4832C78.8359 61.552 86.8606 84.3034 86.8606 84.3034C86.8606 84.3034 87.0369 84.7443 87.3897 84.5679C87.7424 84.3915 87.566 83.9506 87.566 83.9506L82.3632 60.7584Z" stroke="#E3000E" stroke-width="0.25" stroke-miterlimit="3.8637"/>
<path d="M79.0124 64.4621C78.7479 63.7566 78.6597 64.1975 78.6597 64.1975L82.0106 78.1305C82.0106 78.1305 83.2452 83.4215 84.3916 87.3016C85.4498 91.0935 86.5962 94.709 86.7725 95.0617C86.9489 95.4145 87.1253 95.5908 87.3898 95.9436C87.6544 96.2963 89.6826 97.7954 89.418 96.5608C89.2417 95.3263 88.2717 91.1816 87.1253 87.3016C85.9789 83.4215 84.568 79.6296 83.4216 76.6314C82.3634 73.7213 79.277 65.0793 79.0124 64.4621Z" fill="#1E398F"/>
<path d="M79.0124 64.4621C78.7479 63.7566 78.6597 64.1975 78.6597 64.1975L82.0106 78.1305C82.0106 78.1305 83.2452 83.4215 84.3916 87.3016C85.4498 91.0935 86.5962 94.709 86.7725 95.0617C86.9489 95.4145 87.1253 95.5908 87.3898 95.9436C87.6544 96.2963 89.6826 97.7954 89.418 96.5608C89.2417 95.3263 88.2717 91.1816 87.1253 87.3016C85.9789 83.4215 84.568 79.6296 83.4216 76.6314C82.3634 73.7213 79.277 65.0793 79.0124 64.4621Z" stroke="#1E398F" stroke-width="0.25" stroke-miterlimit="3.8637"/>
<path d="M69.4886 46.0317C69.4886 46.0317 68.7831 44.6208 68.6949 44.4445C68.6068 44.2681 68.4304 44.3563 68.4304 44.3563C68.4304 44.3563 68.0777 44.9735 67.7249 44.6208C67.284 44.2681 67.1076 44.4445 67.1076 44.4445C67.1076 44.4445 64.7267 42.8571 61.6403 41.0935C57.3193 38.5362 51.8519 35.4497 50.3528 34.5679C47.7073 32.9806 47.2664 30.8642 47.2664 30.8642L40.2117 25.7496C40.2117 25.7496 39.1535 24.4268 38.2717 23.7213C37.478 23.0159 36.6844 22.3986 36.6844 22.3986L36.5962 21.6931L31.1288 17.284C31.1288 17.284 30.8643 17.1076 30.8643 16.7549C30.8643 15.873 33.8625 12.8748 39.6826 12.8748C45.5027 12.8748 50.6173 16.7549 50.6173 16.7549C50.6173 16.7549 56.0847 16.4903 62.3457 19.9295C69.0477 23.545 72.3105 27.1605 72.3105 27.1605L77.6897 38.448C77.6897 38.448 78.4833 40.7407 78.7479 42.2399C79.0124 43.739 79.4533 46.0317 79.4533 46.0317H78.1306C78.5715 45.5908 78.7479 44.9735 78.7479 44.2681C78.7479 42.769 77.5133 41.5344 76.0142 41.5344C74.515 41.5344 73.2805 42.769 73.2805 44.2681C73.2805 44.9735 73.545 45.5026 73.8978 46.0317H69.4886Z" fill="#E3000E"/>
<path d="M69.4886 46.0317C69.4886 46.0317 68.7831 44.6208 68.6949 44.4445C68.6068 44.2681 68.4304 44.3563 68.4304 44.3563C68.4304 44.3563 68.0777 44.9735 67.7249 44.6208C67.284 44.2681 67.1076 44.4445 67.1076 44.4445C67.1076 44.4445 64.7267 42.8571 61.6403 41.0935C57.3193 38.5362 51.8519 35.4497 50.3528 34.5679C47.7073 32.9806 47.2664 30.8642 47.2664 30.8642L40.2117 25.7496C40.2117 25.7496 39.1535 24.4268 38.2717 23.7213C37.478 23.0159 36.6844 22.3986 36.6844 22.3986L36.5962 21.6931L31.1288 17.284C31.1288 17.284 30.8643 17.1076 30.8643 16.7549C30.8643 15.873 33.8625 12.8748 39.6826 12.8748C45.5027 12.8748 50.6173 16.7549 50.6173 16.7549C50.6173 16.7549 56.0847 16.4903 62.3457 19.9295C69.0477 23.545 72.3105 27.1605 72.3105 27.1605L77.6896 38.448C77.6896 38.448 78.4833 40.7407 78.7479 42.2399C79.0124 43.739 79.4533 46.0317 79.4533 46.0317H78.1306C78.5715 45.5908 78.7479 44.9735 78.7479 44.2681C78.7479 42.769 77.5133 41.5344 76.0142 41.5344C74.515 41.5344 73.2805 42.769 73.2805 44.2681C73.2805 44.9735 73.545 45.5026 73.8978 46.0317H69.4886V46.0317Z" stroke="#E3000E" stroke-width="0.25" stroke-miterlimit="3.8637"/>
<path d="M36.8608 21.3404L34.2153 16.5785C34.2153 16.5785 34.0389 16.1376 34.4798 15.9612C34.9207 15.7848 36.5962 15.0794 39.4181 15.4321C42.1518 15.7848 44.0036 16.6667 44.0036 17.1958C43.9154 17.7249 42.9454 18.5185 41.0936 18.6949C38.8008 18.8712 38.0071 18.1658 38.0071 18.1658C38.0071 18.1658 38.3599 19.4885 41.2699 19.4885C42.8572 19.4885 43.0336 19.0476 43.2982 19.0476C43.5627 19.0476 43.6509 19.3122 43.4745 19.6649C43.2982 19.9294 43.1218 20.0176 42.9454 20.1058C42.7691 20.194 42.3281 20.2822 40.3881 19.9294C39.0653 19.7531 37.1253 18.6949 37.1253 18.6949C37.1253 18.6949 36.6844 18.5185 37.0371 18.9594C37.3899 19.4003 38.8008 20.3704 40.0354 20.8113C41.5345 21.2522 42.3281 20.9876 42.5045 21.3404C42.6809 21.6931 42.3281 22.134 41.9754 22.134C41.6227 22.134 40.7408 21.9577 39.5944 21.4286C38.4481 20.8995 37.5662 20.3704 37.5662 20.3704C37.5662 20.3704 37.3017 20.2822 37.478 20.6349C37.6544 21.0758 38.9772 21.8695 39.5944 22.3104C40.2999 22.7513 41.4463 23.0159 41.4463 23.3686C41.4463 23.7213 41.1817 24.3386 40.829 24.3386C40.5645 24.2504 40.2117 23.9859 40.2117 23.9859L36.8608 21.3404Z" fill="white"/>
<path d="M37.5662 17.0194C37.5662 16.0494 38.3598 15.3439 39.2416 15.3439C40.1235 15.3439 40.9171 16.1376 40.9171 17.0194C40.9171 17.9894 40.1235 18.6949 39.2416 18.6949C38.3598 18.6949 37.5662 17.9012 37.5662 17.0194Z" fill="#FBB900"/>
<path d="M37.5662 17.0194C37.5662 16.0494 38.3598 15.3439 39.2416 15.3439C40.1235 15.3439 40.9171 16.1376 40.9171 17.0194C40.9171 17.9894 40.1235 18.6949 39.2416 18.6949C38.3598 18.6949 37.5662 17.9012 37.5662 17.0194Z" stroke="#FBB900" stroke-width="0.25" stroke-miterlimit="3.8637"/>
<path d="M38.1833 17.0194C38.1833 16.4021 38.5361 15.9612 39.3297 16.5785C39.947 16.5785 40.2998 16.4021 40.2998 17.0194C40.2998 17.6367 39.8588 18.0776 39.2416 18.0776C38.6243 18.0776 38.1833 17.5485 38.1833 17.0194Z" fill="#1E398F"/>
<path d="M38.1833 17.0194C38.1833 16.4021 38.5361 15.9612 39.3297 16.5785C39.947 16.5785 40.2998 16.4021 40.2998 17.0194C40.2998 17.6367 39.8588 18.0776 39.2416 18.0776C38.6243 18.0776 38.1833 17.5485 38.1833 17.0194Z" stroke="#1E398F" stroke-width="0.25" stroke-miterlimit="3.8637"/>
<path d="M72.3986 27.1605C72.3986 27.1605 72.0458 27.6014 71.164 27.6014C68.9594 27.6014 65.873 26.5432 65.6084 26.5432C65.1675 26.5432 65.5202 27.5132 64.8148 27.425C62.522 27.2487 60.3174 26.1023 59.9647 26.1023C59.3474 26.1023 59.8765 27.1605 59.3474 27.0723C57.4956 26.8959 55.5555 26.0141 55.1146 26.0141C54.6737 26.0141 54.9382 26.9841 54.4091 26.9841C52.8218 26.8959 51.5873 26.0141 51.2345 26.1023C50.8818 26.1023 51.3227 28.5714 54.2328 31.3933C55.8201 32.9806 57.7601 33.5979 58.0247 33.5979C58.2892 33.5979 58.2892 33.2451 58.6419 33.3333C58.9947 33.5097 60.6702 34.127 61.9929 34.4797C63.3157 34.8324 64.462 34.9206 64.9911 35.0088C65.5202 35.097 65.9612 36.067 67.2839 36.7725C68.5185 37.5661 70.5467 38.3598 73.2804 39.2416C76.0141 40.2116 78.6596 40.9171 78.6596 40.9171L78.4832 40.2998L86.9488 42.9453C86.9488 42.9453 87.3897 43.0335 87.6543 43.0335C87.9188 43.0335 87.6543 42.6808 87.3016 42.328C86.9488 41.9753 85.5379 40.6525 85.5379 40.6525C85.5379 40.6525 85.5379 40.1234 85.2733 39.7707C85.0088 39.418 84.8324 39.3298 84.8324 39.3298C84.8324 39.3298 84.8324 39.1534 84.656 38.8007C84.4797 38.5361 83.5979 37.7425 83.1569 37.3016C82.6278 36.8607 82.2751 36.5961 82.2751 36.5961C82.2751 36.5961 82.2751 36.4197 81.8342 36.067C81.3933 35.7143 81.2169 35.8025 81.2169 35.8025C81.2169 35.8025 81.2169 35.4497 81.0405 35.1852C80.8642 34.9206 78.7478 32.8042 76.455 30.6878C74.1622 28.4832 73.3686 28.0423 73.3686 28.0423L72.3986 27.1605Z" fill="#FBB900"/>
<path d="M72.3986 27.1605C72.3986 27.1605 72.0458 27.6014 71.164 27.6014C68.9594 27.6014 65.873 26.5432 65.6084 26.5432C65.1675 26.5432 65.5202 27.5132 64.8148 27.425C62.522 27.2487 60.3174 26.1023 59.9647 26.1023C59.3474 26.1023 59.8765 27.1605 59.3474 27.0723C57.4956 26.8959 55.5555 26.0141 55.1146 26.0141C54.6737 26.0141 54.9382 26.9841 54.4091 26.9841C52.8218 26.8959 51.5873 26.0141 51.2345 26.1023C50.8818 26.1023 51.3227 28.5714 54.2328 31.3933C55.8201 32.9806 57.7601 33.5979 58.0247 33.5979C58.2892 33.5979 58.2892 33.2451 58.6419 33.3333C58.9947 33.5097 60.6702 34.127 61.9929 34.4797C63.3157 34.8324 64.462 34.9206 64.9911 35.0088C65.5202 35.097 65.9612 36.067 67.2839 36.7725C68.5185 37.5661 70.5467 38.3598 73.2804 39.2416C76.0141 40.2116 78.6596 40.9171 78.6596 40.9171L78.4832 40.2998L86.9488 42.9453C86.9488 42.9453 87.3897 43.0335 87.6543 43.0335C87.9188 43.0335 87.6543 42.6808 87.3016 42.328C86.9488 41.9753 85.5379 40.6525 85.5379 40.6525C85.5379 40.6525 85.5379 40.1234 85.2733 39.7707C85.0088 39.418 84.8324 39.3298 84.8324 39.3298C84.8324 39.3298 84.8324 39.1534 84.656 38.8007C84.4797 38.5361 83.5978 37.7425 83.1569 37.3016C82.6278 36.8607 82.2751 36.5961 82.2751 36.5961C82.2751 36.5961 82.2751 36.4197 81.8342 36.067C81.3933 35.7143 81.2169 35.8025 81.2169 35.8025C81.2169 35.8025 81.2169 35.4497 81.0405 35.1852C80.8642 34.9206 78.7478 32.8042 76.455 30.6878C74.1622 28.4832 73.3686 28.0423 73.3686 28.0423L72.3986 27.1605Z" stroke="#FBB900" stroke-width="0.25" stroke-miterlimit="3.8637"/>
<path d="M84.9206 40.1235C84.5679 39.9471 79.7178 37.9189 77.7777 37.1252C75.8377 36.3316 72.4867 35.0088 71.8694 34.7443C71.2522 34.4797 71.3403 35.1852 71.3403 35.1852C71.3403 35.1852 71.6049 35.6261 70.8112 35.6261C69.6649 35.6261 67.5485 35.2734 67.1075 35.097C66.6666 34.9206 66.4903 34.9206 66.5784 35.2734C66.5784 35.6261 68.1657 36.6843 70.2821 37.5661C72.3104 38.448 78.4832 40.388 78.4832 40.388L86.9488 43.0335C86.9488 43.0335 87.3897 43.1217 87.6543 43.1217C87.9188 43.1217 87.6543 42.769 87.3015 42.4162C86.9488 42.0635 85.5379 40.7407 85.5379 40.7407C85.5379 40.7407 85.2733 40.2998 84.9206 40.1235Z" fill="#1E398F"/>
<path d="M84.9206 40.1235C84.5679 39.9471 79.7178 37.9189 77.7777 37.1252C75.8377 36.3316 72.4867 35.0088 71.8694 34.7443C71.2522 34.4797 71.3403 35.1852 71.3403 35.1852C71.3403 35.1852 71.6049 35.6261 70.8112 35.6261C69.6649 35.6261 67.5485 35.2734 67.1075 35.097C66.6666 34.9206 66.4903 34.9206 66.5784 35.2734C66.5784 35.6261 68.1657 36.6843 70.2821 37.5661C72.3104 38.448 78.4832 40.388 78.4832 40.388L86.9488 43.0335C86.9488 43.0335 87.3897 43.1217 87.6543 43.1217C87.9188 43.1217 87.6543 42.769 87.3015 42.4162C86.9488 42.0635 85.5379 40.7407 85.5379 40.7407C85.5379 40.7407 85.2733 40.2998 84.9206 40.1235Z" stroke="#1E398F" stroke-width="0.25" stroke-miterlimit="3.8637"/>
<path d="M84.8324 39.2416C84.8324 39.2416 84.8324 39.0653 84.656 38.7125C84.4796 38.448 83.5978 37.6543 83.1569 37.2134C82.6278 36.7725 82.275 36.5079 82.275 36.5079C82.275 36.5079 81.305 36.5079 80.5996 36.4197C79.8941 36.3316 78.1304 35.9788 78.0422 36.2434C78.0422 36.5079 80.2468 37.3016 81.9223 38.0952C84.0387 39.0653 84.8324 39.2416 84.8324 39.2416Z" fill="#1E398F"/>
<path d="M84.8324 39.2416C84.8324 39.2416 84.8324 39.0653 84.656 38.7125C84.4796 38.448 83.5978 37.6543 83.1569 37.2134C82.6278 36.7725 82.275 36.5079 82.275 36.5079C82.275 36.5079 81.305 36.5079 80.5996 36.4197C79.8941 36.3316 78.1304 35.9788 78.0422 36.2434C78.0422 36.5079 80.2468 37.3016 81.9223 38.0952C84.0387 39.0653 84.8324 39.2416 84.8324 39.2416Z" stroke="#1E398F" stroke-width="0.25" stroke-miterlimit="3.8637"/>
<path d="M81.1288 35.7143C81.1288 35.7143 81.1288 35.3615 80.9524 35.097C80.776 34.8324 78.6596 32.716 76.3669 30.5996C74.0741 28.395 73.2804 27.9541 73.2804 27.9541C73.2804 27.9541 73.1041 28.3069 73.6332 29.2769C74.1623 30.2469 74.515 31.4815 74.2505 31.5697C73.9859 31.6578 72.3986 31.3933 70.9877 30.8642C69.4886 30.3351 67.9894 29.6296 67.8131 29.6296C67.284 29.806 68.0776 30.9524 67.6367 30.9524C67.1958 31.0405 65.873 30.8642 64.1976 30.3351C62.5221 29.806 61.5521 29.0123 61.1993 29.1005C60.8466 29.1887 61.1111 30.1587 60.4938 30.0705C59.8766 29.9823 58.9065 29.7178 57.8483 29.3651C56.7901 29.0123 56.261 28.6596 55.9083 28.6596C55.5556 28.6596 55.7319 29.1005 55.291 29.1005C54.0565 29.0123 53.4392 28.4832 53.2628 28.6596C53.0864 28.836 53.0864 28.9241 53.351 29.3651C53.5274 29.806 54.4974 30.776 55.291 31.3933C56.0847 32.0106 57.2311 32.5397 57.3192 32.5397C57.672 32.5397 57.4956 31.8342 57.9365 32.0988C58.2893 32.2751 60.0529 33.157 60.9348 33.5097C61.8166 33.8624 63.0512 34.2152 63.5803 34.127C63.8448 34.127 63.7566 33.4215 64.1976 33.5097C64.5503 33.5979 67.0194 34.4797 68.254 34.7443C69.4886 35.0088 70.2822 35.097 70.5468 34.8324C70.7231 34.6561 70.4586 33.9506 70.8113 33.8624C71.164 33.7742 71.3404 33.9506 71.6931 34.0388C72.0459 34.2152 74.0741 34.8324 76.2787 35.2734C79.1887 35.8906 81.1288 35.7143 81.1288 35.7143Z" fill="#1E398F"/>
<path d="M81.1288 35.7143C81.1288 35.7143 81.1288 35.3615 80.9524 35.097C80.776 34.8324 78.6596 32.716 76.3669 30.5996C74.0741 28.395 73.2804 27.9541 73.2804 27.9541C73.2804 27.9541 73.1041 28.3069 73.6332 29.2769C74.1623 30.2469 74.515 31.4815 74.2505 31.5697C73.9859 31.6578 72.3986 31.3933 70.9877 30.8642C69.4886 30.3351 67.9894 29.6296 67.8131 29.6296C67.284 29.806 68.0776 30.9524 67.6367 30.9524C67.1958 31.0405 65.873 30.8642 64.1976 30.3351C62.5221 29.806 61.5521 29.0123 61.1993 29.1005C60.8466 29.1887 61.1111 30.1587 60.4938 30.0705C59.8766 29.9823 58.9065 29.7178 57.8483 29.3651C56.7901 29.0123 56.261 28.6596 55.9083 28.6596C55.5556 28.6596 55.7319 29.1005 55.291 29.1005C54.0565 29.0123 53.4392 28.4832 53.2628 28.6596C53.0864 28.836 53.0864 28.9241 53.351 29.3651C53.5274 29.806 54.4974 30.776 55.291 31.3933C56.0847 32.0106 57.2311 32.5397 57.3192 32.5397C57.672 32.5397 57.4956 31.8342 57.9365 32.0988C58.2893 32.2751 60.0529 33.157 60.9348 33.5097C61.8166 33.8624 63.0512 34.2152 63.5803 34.127C63.8448 34.127 63.7566 33.4215 64.1976 33.5097C64.5503 33.5979 67.0194 34.4797 68.254 34.7443C69.4886 35.0088 70.2822 35.097 70.5468 34.8324C70.7231 34.6561 70.4586 33.9506 70.8113 33.8624C71.164 33.7742 71.3404 33.9506 71.6931 34.0388C72.0459 34.2152 74.0741 34.8324 76.2787 35.2734C79.1887 35.8906 81.1288 35.7143 81.1288 35.7143Z" stroke="#1E398F" stroke-width="0.25" stroke-miterlimit="3.8637"/>
<path d="M77.4251 60.6702H74.6914L78.0424 70.8995C77.6015 69.5767 78.6597 72.9277 79.1888 73.9859C79.7179 75.0441 79.9824 75.3086 80.247 75.3968C80.4233 75.3968 80.4233 75.3086 80.4233 75.3086L77.4251 60.6702Z" fill="#E3000E"/>
<path d="M77.4251 60.6702H74.6914L78.0424 70.8995C77.6015 69.5767 78.6597 72.9277 79.1888 73.9859C79.7179 75.0441 79.9824 75.3086 80.247 75.3968C80.4233 75.3968 80.4233 75.3086 80.4233 75.3086L77.4251 60.6702Z" stroke="#E3000E" stroke-width="0.25" stroke-miterlimit="3.8637"/>
<path d="M26.014 47.9718C26.014 44.6208 24.5149 42.6808 20.8112 42.6808C16.4902 42.6808 15.2556 45.5027 15.2556 51.1464C15.2556 56.8783 16.0493 59.9647 20.1939 59.9647C21.7812 59.9647 22.9276 59.4356 23.7212 58.1129H23.8094V59.612H26.2785V50.6173H20.8994V53.0864H22.9276V54.7619C22.9276 56.5256 21.693 57.4074 20.8994 57.4074C18.9593 57.4074 18.6066 54.9383 18.6066 50.8818C18.6066 46.7372 19.2239 45.0617 20.8994 45.0617C22.2221 45.0617 22.8394 46.649 22.8394 47.8836H26.014V47.9718Z" fill="#1E398F" stroke="#1E398F" stroke-width="0.303" stroke-miterlimit="3.8637"/>
<path d="M28.3069 59.612H31.5697V43.0335H28.3069V59.612Z" fill="#1E398F" stroke="#1E398F" stroke-width="0.303" stroke-miterlimit="3.8637"/>
<path d="M36.6842 50.97V50.6173C36.6842 49.6473 37.2133 49.03 38.1833 49.03C39.2415 49.03 39.6825 49.6473 39.6825 50.5291C39.6825 51.3228 39.3297 51.7637 38.3597 52.0282L36.5079 52.5573C34.3033 53.1746 33.3333 54.1446 33.3333 56.4374C33.3333 58.1129 34.1269 60.0529 36.3315 60.0529C37.8306 60.0529 38.8006 59.7002 39.5061 58.4656H39.5943C39.6825 58.9065 39.7706 59.3475 39.947 59.7884H43.0334C42.6807 59.0829 42.6807 58.5538 42.6807 57.4074V50.7937C42.6807 48.5009 41.9752 47.0018 38.1833 47.0018C35.8024 47.0018 33.7742 47.9718 33.7742 50.8818V51.1464H36.6842V50.97ZM39.5943 55.8201C39.5943 57.231 38.4479 57.7601 37.6542 57.7601C36.7724 57.7601 36.4197 56.9665 36.4197 55.9965C36.4197 54.8501 36.9488 54.2328 38.2715 53.9683C38.6243 53.8801 39.2415 53.7037 39.6825 53.351V55.8201H39.5943Z" fill="#1E398F"/>
<path d="M36.6842 50.97V50.6173C36.6842 49.6473 37.2133 49.03 38.1833 49.03C39.2415 49.03 39.6825 49.6473 39.6825 50.5291C39.6825 51.3228 39.3297 51.7637 38.3597 52.0282L36.5079 52.5573C34.3033 53.1746 33.3333 54.1446 33.3333 56.4374C33.3333 58.1129 34.1269 60.0529 36.3315 60.0529C37.8306 60.0529 38.8006 59.7002 39.5061 58.4656H39.5943C39.6825 58.9065 39.7706 59.3475 39.947 59.7884H43.0334C42.6807 59.0829 42.6807 58.5538 42.6807 57.4074V50.7937C42.6807 48.5009 41.9752 47.0018 38.1833 47.0018C35.8024 47.0018 33.7742 47.9718 33.7742 50.8818V51.1464H36.6842V50.97ZM39.5943 55.8201C39.5943 57.231 38.4479 57.7601 37.6542 57.7601C36.7724 57.7601 36.4197 56.9665 36.4197 55.9965C36.4197 54.8501 36.9488 54.2328 38.2715 53.9683C38.6243 53.8801 39.2415 53.7037 39.6825 53.351V55.8201H39.5943Z" stroke="#1E398F" stroke-width="0.303" stroke-miterlimit="3.8637"/>
<path d="M44.4443 55.5556V55.9965C44.4443 58.3774 45.4144 59.9647 49.0299 59.9647C51.7636 59.9647 53.7036 58.642 53.7036 55.9965C53.7036 54.1446 52.9981 53.0864 50.9699 52.381L49.0299 51.7637C47.9717 51.4109 47.6189 50.8818 47.6189 50.2645C47.6189 49.3827 48.3244 48.9418 49.1181 48.9418C50.1763 48.9418 50.529 49.5591 50.529 50.7936H53.439V50.2645C53.439 47.9718 52.0281 46.7372 49.2062 46.7372C45.9435 46.7372 44.6207 48.4127 44.6207 50.5291C44.6207 52.2928 45.5025 53.351 47.2662 54.0564L49.559 54.8501C50.1763 55.1146 50.7054 55.4674 50.7054 56.261C50.7054 57.231 50.0881 57.7601 49.1181 57.7601C48.0599 57.7601 47.4426 57.0547 47.4426 55.9083V55.5556H44.4443Z" fill="#1E398F" stroke="#1E398F" stroke-width="0.303" stroke-miterlimit="3.8637"/>
<path d="M61.7284 59.612H64.8148V47.09H61.6402V55.3792C61.6402 56.7901 61.0229 57.4074 59.9647 57.4074C58.9947 57.4074 58.5538 56.8783 58.5538 55.6437V47.0018H55.3792V56.261C55.3792 58.7302 56.5255 59.7884 58.5538 59.7884C59.8765 59.7884 61.0229 59.2593 61.7284 58.0247V59.612Z" fill="#1E398F" stroke="#1E398F" stroke-width="0.303" stroke-miterlimit="3.8637"/>
<path d="M80.776 47.0899H79.1887V49.2945H80.776V56.4374C80.776 58.9947 81.2169 59.7002 83.7743 59.7002C84.4797 59.7002 85.1852 59.612 85.8907 59.5238V57.3192C85.7143 57.3192 85.4497 57.4074 85.1852 57.4074C84.2152 57.4074 84.0388 57.0547 84.0388 55.9965V49.2063H85.8907V47.0017H84.0388V43.3862H80.8642V47.0899H80.776Z" fill="#1E398F" stroke="#1E398F" stroke-width="0.303" stroke-miterlimit="3.8637"/>
<path d="M67.1958 59.612H70.3705V52.1164C70.3705 50.4409 71.605 49.8236 72.7514 49.8236C73.1041 49.8236 73.1041 49.8236 73.4569 49.9118V46.8254C73.2805 46.8254 73.3687 46.7372 73.1923 46.7372C71.8696 46.7372 70.9877 47.5309 70.2823 48.7654H70.1941V47.0899H67.1077V59.612H67.1958Z" fill="#1E398F" stroke="#1E398F" stroke-width="0.303" stroke-miterlimit="3.8637"/>
<path d="M74.5149 59.612H77.6895V47.0899H74.5149V59.612Z" fill="#1E398F" stroke="#1E398F" stroke-width="0.303" stroke-miterlimit="3.8637"/>
<path d="M76.1023 42.5044C77.0723 42.5044 77.866 43.298 77.866 44.2681C77.866 45.2381 77.0723 46.0317 76.1023 46.0317C75.1323 46.0317 74.3386 45.2381 74.3386 44.2681C74.3386 43.298 75.1323 42.5044 76.1023 42.5044Z" fill="#1E398F" stroke="#1E398F" stroke-width="0.303" stroke-miterlimit="3.8637"/>
<path fill-rule="evenodd" clip-rule="evenodd" d="M84.127 63.5803C84.127 64.903 85.1852 65.7848 86.3315 65.7848C87.5661 65.7848 88.5361 64.8148 88.5361 63.5803C88.5361 62.3457 87.4779 61.3757 86.3315 61.3757C85.1852 61.3757 84.127 62.3457 84.127 63.5803ZM84.5679 63.5803C84.5679 62.5221 85.3615 61.7284 86.4197 61.7284C87.4779 61.7284 88.2716 62.5221 88.2716 63.5803C88.2716 64.6385 87.4779 65.5203 86.4197 65.5203C85.3615 65.5203 84.5679 64.6385 84.5679 63.5803ZM85.5379 64.903H85.9788V63.7566H86.4197L87.1252 64.903H87.5661L86.8606 63.7566C87.2134 63.7566 87.5661 63.4921 87.5661 63.0512C87.5661 62.5221 87.3016 62.3457 86.6843 62.3457H85.5379V64.903ZM85.8906 62.6102H86.4197C86.6843 62.6102 86.9488 62.6984 86.9488 63.0512C86.9488 63.4921 86.5961 63.4921 86.2434 63.4921H85.8024V62.6102H85.8906Z" fill="#1E398F"/>
</svg>
